# xmcd CD database file
#
# Track frame offsets:
#	150
#	22118
#	41931
#	64594
#	83290
#	112784
#	133237
#	150229
#	170801
#	186341
#	198273
#	232194
#
# Disc length: 3539 seconds
#
# Revision: 1
# Processed by: cddbd v1.5.2PL0 Copyright (c) Steve Scherf et al.
# Submitted via: CDex 1.51
#
DISCID=9d0dd10c
DTITLE=bennink-borstlap-glerum - monk volume one
DYEAR=2008
DGENRE=Jazz
TTITLE0=four in one
TTITLE1=think of one
TTITLE2=mysterioso
TTITLE3=skippy
TTITLE4=pannonica
TTITLE5=epistrophy
TTITLE6=nutty
TTITLE7=bye-ya
TTITLE8=crepuscule with nellie
TTITLE9=evidence
TTITLE10=let's cool one
TTITLE11=ask me now
EXTD=YEAR: 2008
EXTT0=
EXTT1=
EXTT2=
EXTT3=
EXTT4=
EXTT5=
EXTT6=
EXTT7=
EXTT8=
EXTT9=
EXTT10=
EXTT11=
PLAYORDER=
